<svg width="256" height="256" viewBox="0 0 256 256" xmlns="http://www.w3.org/2000/svg">
  <defs>
    <linearGradient id="bg" x1="0%" y1="0%" x2="100%" y2="100%">
      <stop offset="0%" style="stop-color:#1a1a1a;stop-opacity:1" />
      <stop offset="100%" style="stop-color:#0a0a0a;stop-opacity:1" />
    </linearGradient>
    <linearGradient id="chart" x1="0%" y1="0%" x2="100%" y2="100%">
      <stop offset="0%" style="stop-color:#10b981;stop-opacity:1" />
      <stop offset="100%" style="stop-color:#059669;stop-opacity:1" />
    </linearGradient>
  </defs>

  <!-- Background -->
  <rect width="256" height="256" fill="url(#bg)" rx="32"/>

  <!-- Chart lines -->
  <path d="M40 180 L80 140 L120 160 L160 120 L200 100 L216 110"
        stroke="url(#chart)" stroke-width="8" fill="none" stroke-linecap="round" stroke-linejoin="round"/>

  <!-- Data points -->
  <circle cx="40" cy="180" r="6" fill="#10b981"/>
  <circle cx="80" cy="140" r="6" fill="#10b981"/>
  <circle cx="120" cy="160" r="6" fill="#10b981"/>
  <circle cx="160" cy="120" r="6" fill="#10b981"/>
  <circle cx="200" cy="100" r="6" fill="#10b981"/>
  <circle cx="216" cy="110" r="6" fill="#10b981"/>

  <!-- Grid lines -->
  <path d="M32 40 L32 200 M32 200 L224 200" stroke="#333" stroke-width="2"/>
  <path d="M32 160 L224 160 M32 120 L224 120 M32 80 L224 80" stroke="#222" stroke-width="1" opacity="0.5"/>

  <!-- Title -->
  <text x="128" y="235" text-anchor="middle" fill="#10b981" font-family="Arial, sans-serif" font-size="18" font-weight="bold">STOCK</text>
  <text x="128" y="250" text-anchor="middle" fill="#666" font-family="Arial, sans-serif" font-size="12">ANALYZER</text>
</svg>